# xmcd
#
# Track frame offsets: 
#        150
#        11431
#        22010
#        34505
#        45478
#        56445
#        69387
#        79548
#        92306
#        104585
#        116247
#        125841
#        138017
#        150752
#        161415
#        171221
#        182723
#        195979
#        206796
#        216508
#        224389
#        235249
#
# Disc length: 3280 seconds
#
# Revision: 0
# Processed by: cddbd v1.5.2PL0 Copyright (c) Steve Scherf et al.
# Submitted via: ExactAudioCopyFreeDBPlugin 1.0
#
DISCID=250cce16
DTITLE=James Brown - Singles Collection, 1956-1962
DYEAR=2014
DGENRE=Soul
TTITLE0=Try Me
TTITLE1=Tell Me What I Did Wrong
TTITLE2=I Want You So Bad
TTITLE3=There Must Be a Reason
TTITLE4=I've Got to Change
TTITLE5=It Hurts to Tell You
TTITLE6=Good Good Lovin'
TTITLE7=Don't Let it Happen to Me
TTITLE8=It Was You
TTITLE9=I've Got to Cry
TTITLE10=I'll Go Crazy
TTITLE11=I Know It's True
TTITLE12=Think
TTITLE13=You've Got the Power
TTITLE14=This Old Heart
TTITLE15=Wonder When You're Coming Home
TTITLE16=The Bells
TTITLE17=And I Do Just What I Want
TTITLE18=Hold It
TTITLE19=The Scratch
TTITLE20=Bewildered
TTITLE21=If You Want Me
EXTD=
EXTT0=
EXTT1=
EXTT2=
EXTT3=
EXTT4=
EXTT5=
EXTT6=
EXTT7=
EXTT8=
EXTT9=
EXTT10=
EXTT11=
EXTT12=
EXTT13=
EXTT14=
EXTT15=
EXTT16=
EXTT17=
EXTT18=
EXTT19=
EXTT20=
EXTT21=
PLAYORDER=
